<?xml version="1.0" standalone="no"?>
<!DOCTYPE svg PUBLIC "-//W3C//DTD SVG 20010904//EN"
 "http://www.w3.org/TR/2001/REC-SVG-20010904/DTD/svg10.dtd">
<svg version="1.0" xmlns="http://www.w3.org/2000/svg"
 width="127.000000pt" height="127.000000pt" viewBox="0 0 127.000000 127.000000"
 preserveAspectRatio="xMidYMid meet">
<metadata>
Created by potrace 1.11, written by Peter Selinger 2001-2013
</metadata>
<g transform="translate(0.000000,127.000000) scale(0.100000,-0.100000)"
fill="#000000" stroke="none">
<path d="M0 635 l0 -635 635 0 635 0 0 635 0 635 -635 0 -635 0 0 -635z m1082
448 c17 -15 18 -42 18 -446 0 -387 -2 -432 -17 -449 -15 -17 -42 -18 -446 -18
-387 0 -432 2 -449 17 -17 15 -18 42 -18 446 0 387 2 432 17 449 15 17 42 18
446 18 387 0 432 -2 449 -17z"/>
</g>
</svg>
